<?xml version="1.0" standalone="no"?>
<!DOCTYPE svg PUBLIC "-//W3C//DTD SVG 20010904//EN"
 "http://www.w3.org/TR/2001/REC-SVG-20010904/DTD/svg10.dtd">
<svg version="1.0" xmlns="http://www.w3.org/2000/svg"
 width="100.000000pt" height="100.000000pt" viewBox="0 0 100.000000 100.000000"
 preserveAspectRatio="xMidYMid meet">

<g transform="translate(0.000000,100.000000) scale(0.100000,-0.100000)"
fill="#000000" stroke="none">
<path d="M197 803 l-57 -58 122 -122 123 -123 -123 -123 -122 -122 61 -60 61
-60 119 125 120 125 118 -125 119 -125 61 60 61 60 -122 122 -123 123 123 123
122 122 -61 60 -61 60 -119 -125 -119 -125 -116 123 c-63 67 -119 122 -122
122 -4 0 -33 -26 -65 -57z m426 -105 l122 122 38 -37 37 -38 -122 -122 -123
-123 123 -123 122 -122 -37 -38 -38 -37 -122 122 -123 123 -123 -123 -122
-122 -38 37 -37 38 122 122 123 123 -123 123 -122 122 37 38 38 37 122 -122
123 -123 123 123z"/>
</g>
</svg>
