<?xml version="1.0" standalone="no"?>
<!DOCTYPE svg PUBLIC "-//W3C//DTD SVG 20010904//EN"
 "http://www.w3.org/TR/2001/REC-SVG-20010904/DTD/svg10.dtd">
<svg version="1.0" xmlns="http://www.w3.org/2000/svg"
 width="100.000000pt" height="100.000000pt" viewBox="0 0 100.000000 100.000000"
 preserveAspectRatio="xMidYMid meet">

<g transform="translate(0.000000,100.000000) scale(0.100000,-0.100000)"
fill="#fff" stroke="none">
<path d="M156 844 c-23 -23 -23 -265 0 -288 23 -23 265 -23 288 0 23 23 23
265 0 288 -23 23 -265 23 -288 0z m269 -144 l0 -125 -125 0 -125 0 -3 114 c-1
63 0 121 2 128 4 11 33 13 128 11 l123 -3 0 -125z"/>
<path d="M556 844 c-23 -23 -23 -265 0 -288 23 -23 265 -23 288 0 23 23 23
265 0 288 -23 23 -265 23 -288 0z m269 -144 l0 -125 -125 0 -125 0 -3 114 c-1
63 0 121 2 128 4 11 33 13 128 11 l123 -3 0 -125z"/>
<path d="M156 444 c-23 -23 -23 -265 0 -288 23 -23 265 -23 288 0 23 23 23
265 0 288 -23 23 -265 23 -288 0z m269 -144 l0 -125 -125 0 -125 0 -3 114 c-1
63 0 121 2 128 4 11 33 13 128 11 l123 -3 0 -125z"/>
<path d="M556 444 c-23 -23 -23 -265 0 -288 23 -23 265 -23 288 0 23 23 23
265 0 288 -23 23 -265 23 -288 0z m269 -144 l0 -125 -125 0 -125 0 -3 114 c-1
63 0 121 2 128 4 11 33 13 128 11 l123 -3 0 -125z"/>
</g>
</svg>
